<svg version="1.1" id="Layer_1" xmlns="http://www.w3.org/2000/svg" xmlns:xlink="http://www.w3.org/1999/xlink" x="0px" y="0px"
	 width="100%" viewBox="0 0 371 126" enable-background="new 0 0 371 126" xml:space="preserve">
<path fill="#FEFEFD" opacity="1.000000" stroke="none" 
	d="
M283.000000,127.000000 
	C190.000015,127.000000 97.499992,126.975700 5.000157,127.095718 
	C1.576042,127.100159 0.888086,126.425819 0.901482,122.999649 
	C1.055917,83.500259 1.041892,43.999908 0.916114,4.500315 
	C0.906614,1.516980 1.517933,0.916324 4.500015,0.918664 
	C125.833260,1.013874 247.166611,1.013867 368.499847,0.918695 
	C371.481537,0.916357 372.093353,1.516451 372.083893,4.500172 
	C371.958252,44.166435 371.958313,83.833359 372.083893,123.499626 
	C372.093323,126.482758 371.484650,127.100250 368.499695,127.085190 
	C340.167053,126.942261 311.833374,127.000000 283.000000,127.000000 
z"/>
<path fill="#556266" opacity="1.000000" stroke="none" 
	d="
M130.945053,58.060028 
	C125.217529,60.802109 119.869614,63.495510 114.426857,65.981239 
	C111.965240,67.105469 110.967728,67.845123 113.367294,70.358688 
	C119.445938,76.726112 119.326057,76.842018 113.018379,83.148109 
	C101.354034,94.809540 89.603493,106.386909 78.090340,118.195732 
	C75.562531,120.788452 74.256081,120.527840 71.889824,118.092285 
	C62.487114,108.414246 52.924957,98.887878 43.273918,89.456734 
	C41.030651,87.264587 40.707726,85.981133 43.151035,83.592461 
	C56.254696,70.781845 69.226074,57.833961 82.100670,44.792835 
	C84.346085,42.518383 85.663620,42.241684 87.981804,44.687283 
	C90.414322,47.253494 92.965378,52.041939 95.827728,51.257584 
	C98.209518,50.604912 99.370789,45.362514 100.993210,42.113407 
	C102.552338,38.991062 104.118240,35.863686 105.474228,32.651169 
	C106.426659,30.394739 107.289474,30.379862 108.938499,32.048233 
	C116.433670,39.631306 124.001312,47.142960 131.571884,54.651081 
	C132.870728,55.939213 133.497574,57.017075 130.945053,58.060028 
z"/>
<path fill="#F9BE56" opacity="1.000000" stroke="none" 
	d="
M52.363304,49.978542 
	C48.652157,44.181435 44.794437,38.591595 44.938068,31.298170 
	C45.141094,20.988899 51.061241,11.848116 60.622387,7.804137 
	C69.981041,3.845803 81.223961,5.939912 88.404976,12.978925 
	C95.924866,20.350115 98.393867,31.572054 94.467720,41.041939 
	C93.873955,42.474117 93.628403,44.901787 91.726639,44.677406 
	C90.378746,44.518383 89.071625,42.800846 88.028221,41.544804 
	C86.251022,39.405403 89.027061,39.308319 89.739479,38.366890 
	C92.012138,35.363686 91.792458,30.765093 89.075172,28.398865 
	C86.412712,26.080381 81.973465,26.265226 79.562721,28.794954 
	C77.007874,31.475897 77.304535,35.780506 79.919418,38.711117 
	C80.687660,39.572121 84.022926,39.534664 81.664330,42.042740 
	C79.282532,44.575485 78.777870,41.560669 77.652504,40.564236 
	C74.772842,38.014481 70.270950,38.045212 67.707321,40.690292 
	C65.065086,43.416470 65.350571,47.610847 68.100464,50.578403 
	C68.879272,51.418858 71.861946,51.275879 70.101746,53.505730 
	C68.773987,55.187759 67.557182,57.236843 64.408302,56.324142 
	C59.956841,55.033890 56.326584,52.539383 52.363304,49.978542 
z"/>
<path fill="#F9BE56" opacity="1.000000" stroke="none" 
	d="
M51.992081,49.987518 
	C53.035286,53.496906 55.964310,55.945103 57.225368,59.439358 
	C58.666737,63.433239 58.514191,66.519539 54.394413,68.711075 
	C52.836285,67.316002 52.243458,64.855042 49.980186,64.206749 
	C46.516445,63.214607 43.245949,63.502670 41.164238,66.846657 
	C39.117954,70.133728 39.613667,73.555496 42.682785,75.731468 
	C45.547890,77.762794 45.433262,78.967896 42.559273,80.638969 
	C41.784428,79.626938 41.108089,78.499405 40.201275,77.605751 
	C37.658531,75.099899 34.665295,74.575462 31.586132,76.413628 
	C28.916363,78.007401 27.663380,80.622963 28.457785,83.648842 
	C29.327913,86.963127 31.477518,89.224358 35.242725,89.080414 
	C37.878067,88.979668 41.589806,88.291397 41.528996,91.713333 
	C41.486885,94.083145 37.508282,93.821083 35.145546,93.954628 
	C21.918859,94.702202 9.958261,85.483727 8.003139,73.172058 
	C5.799390,59.294754 13.335307,46.895359 26.338478,43.568333 
	C35.713856,41.169518 44.063282,43.669556 51.691826,49.985229 
	C52.038033,50.037525 52.007591,50.003937 51.992081,49.987518 
z"/>
<path fill="#576368" opacity="1.000000" stroke="none" 
	d="
M179.351471,25.227547 
	C179.351379,32.860985 179.411957,40.023895 179.298813,47.184063 
	C179.277115,48.557487 180.395050,50.776779 177.552673,50.991360 
	C174.681183,51.208145 174.887573,49.176247 174.884338,47.326847 
	C174.873611,41.184292 174.880280,35.041702 174.880280,28.264135 
	C172.524506,30.096056 172.367371,32.539749 171.340393,34.442265 
	C170.634094,35.750729 170.253906,37.226940 168.314087,37.306080 
	C166.319641,37.387444 165.852356,35.896297 165.216583,34.582813 
	C164.372299,32.838562 163.625351,31.047197 161.767349,29.373087 
	C161.767349,34.537075 161.773376,39.701073 161.763184,44.865044 
	C161.760559,46.196514 161.794037,47.537106 161.654388,48.856941 
	C161.484192,50.465412 160.435287,51.014671 158.865768,51.010189 
	C157.173141,51.005352 157.056076,49.965740 157.056625,48.714462 
	C157.060959,38.887608 157.055893,29.060749 157.061859,19.233898 
	C157.062561,18.057037 157.005692,16.851799 158.736038,16.795572 
	C160.375107,16.742308 161.622757,17.161299 162.348434,18.810406 
	C164.133514,22.867064 166.001755,26.887138 168.270721,31.876696 
	C170.297043,27.382324 171.877731,23.814505 173.514526,20.272614 
	C174.307968,18.555672 174.552032,16.167677 177.466110,16.800034 
	C180.243652,17.402767 179.056305,19.659626 179.313309,21.264032 
	C179.495422,22.400919 179.350586,23.590181 179.351471,25.227547 
z"/>
<path fill="#576368" opacity="1.000000" stroke="none" 
	d="
M279.929932,21.280022 
	C279.930847,29.905989 280.032928,38.066635 279.843658,46.220516 
	C279.806793,47.808182 281.441406,50.700069 278.096100,50.917858 
	C274.232819,51.169357 275.284149,47.968769 275.239258,45.885384 
	C275.117432,40.235317 275.197449,34.580902 274.408447,28.657455 
	C273.447571,30.814604 272.607635,33.036446 271.496796,35.113407 
	C269.918396,38.064579 267.650726,38.083099 266.037537,35.148731 
	C264.874847,33.033878 263.995972,30.762993 262.097229,28.735325 
	C262.097229,34.607697 262.180054,40.481960 262.045959,46.351269 
	C262.006531,48.077709 263.156189,50.766331 259.876526,50.949844 
	C256.249786,51.152782 257.695007,48.241894 257.669342,46.650692 
	C257.529785,37.995174 257.553650,29.335655 257.652863,20.679022 
	C257.668976,19.273495 256.581787,17.066275 259.288330,16.737366 
	C261.487762,16.470085 262.513428,17.853445 263.301849,19.712002 
	C264.899689,23.478544 266.648712,27.180929 268.776703,31.885338 
	C270.846985,27.243864 272.512848,23.508743 274.178986,19.773720 
	C274.928467,18.093559 275.538086,16.302748 278.036743,16.832176 
	C280.487122,17.351381 279.742157,19.278315 279.929932,21.280022 
z"/>
<path fill="#515E63" opacity="1.000000" stroke="none" 
	d="
M316.232880,47.740044 
	C314.373962,41.535084 312.636658,35.713604 310.899384,29.892128 
	C310.615692,29.930534 310.332001,29.968941 310.048309,30.007347 
	C310.048309,35.693226 310.071594,41.379261 310.034454,47.064896 
	C310.023010,48.815647 310.502563,51.025307 307.596588,50.950344 
	C304.765625,50.877316 305.774445,48.623581 305.760773,47.230919 
	C305.672424,38.253071 305.687988,29.273733 305.747467,20.295403 
	C305.756195,18.977217 305.034760,17.098833 307.408508,16.833549 
	C309.476105,16.602482 310.400909,17.847301 310.944702,19.584406 
	C312.745575,25.337156 314.549408,31.089001 316.352081,36.841194 
	C316.764557,36.775082 317.177002,36.708973 317.589478,36.642860 
	C317.589478,31.569681 317.470154,26.492077 317.657990,21.425859 
	C317.718903,19.782623 316.267853,16.971373 319.658813,16.846487 
	C322.970184,16.724535 322.004791,19.443251 322.021332,21.202393 
	C322.102478,29.847813 322.105774,38.494938 322.007751,47.139996 
	C321.993286,48.415974 323.013306,50.356541 320.851440,50.903397 
	C318.546783,51.486385 317.018738,50.403000 316.232880,47.740044 
z"/>
<path fill="#566267" opacity="1.000000" stroke="none" 
	d="
M201.971985,26.230133 
	C202.418503,32.458858 202.606400,38.264904 201.502090,44.017513 
	C200.610809,48.660484 198.096512,51.374962 192.985779,51.267010 
	C188.181091,51.165520 185.734634,48.678413 184.827377,44.190636 
	C183.495728,37.603565 183.570724,31.004677 184.627441,24.407852 
	C185.378662,19.718060 187.510910,16.235128 192.857849,16.065065 
	C198.194855,15.895318 200.548630,19.154297 201.572449,23.853170 
	C201.713425,24.500212 201.818253,25.155138 201.971985,26.230133 
z"/>
<path fill="#576368" opacity="1.000000" stroke="none" 
	d="
M286.013580,34.943001 
	C287.223572,29.509504 288.413635,24.500547 289.507538,19.470682 
	C289.902313,17.655661 290.501526,16.539968 292.726227,16.602448 
	C294.841248,16.661842 295.096344,17.959253 295.437347,19.445307 
	C297.591370,28.832350 299.790863,38.209339 301.855255,47.616009 
	C302.083923,48.658092 303.172729,50.373604 301.102020,50.896538 
	C299.310333,51.349007 297.764008,50.839649 297.270172,48.771603 
	C296.845856,46.994774 296.304260,45.214367 296.165833,43.408607 
	C295.980316,40.988953 295.120392,39.956844 292.488586,39.946232 
	C289.741638,39.935158 289.107269,41.216129 288.933075,43.534134 
	C288.796875,45.346214 288.187073,47.120129 288.013519,48.932629 
	C287.802582,51.135548 286.367828,51.114727 284.803467,50.952198 
	C282.909698,50.755444 282.849457,49.389244 283.143616,48.003212 
	C284.039886,43.779858 285.012665,39.572727 286.013580,34.943001 
z"/>
<path fill="#566267" opacity="1.000000" stroke="none" 
	d="
M348.501801,42.531120 
	C347.919769,38.924068 345.423492,40.241222 343.676544,40.077343 
	C341.653229,39.887543 341.904877,41.676674 341.636261,42.856991 
	C341.193634,44.801716 340.843994,46.772190 340.558411,48.746742 
	C340.286865,50.624287 339.279327,51.233532 337.461456,50.989025 
	C335.608185,50.739758 335.396484,49.617653 335.721191,48.128609 
	C337.882629,38.216038 340.051727,28.305134 342.216919,18.393373 
	C342.530884,16.956102 343.570312,16.678553 344.846130,16.655775 
	C346.306946,16.629694 347.446045,16.901827 347.827148,18.598085 
	C350.087311,28.658630 352.389313,38.709766 354.667236,48.766346 
	C354.884460,49.725517 355.240875,50.843151 353.671387,50.954895 
	C352.171600,51.061672 350.514008,51.236454 350.007965,49.275261 
	C349.468140,47.183167 349.083313,45.051075 348.501801,42.531120 
z"/>
<path fill="#5A666A" opacity="1.000000" stroke="none" 
	d="
M248.806839,34.793190 
	C245.039810,34.267483 243.324646,35.334068 243.872192,39.005859 
	C244.090240,40.467987 244.044479,42.005131 243.878357,43.481064 
	C243.578613,46.144363 244.698242,47.094143 247.270218,46.816040 
	C248.583206,46.674068 249.925766,46.830357 251.252869,46.787388 
	C252.910446,46.733727 254.176346,46.909344 254.086487,49.130180 
	C254.003708,51.176464 252.683838,51.001606 251.358582,51.024525 
	C251.192551,51.027397 251.026108,51.019310 250.860428,51.027515 
	C239.024780,51.613380 239.024704,51.613476 239.024857,39.771832 
	C239.024948,33.129017 239.102875,26.484810 238.983368,19.844152 
	C238.942001,17.545855 239.584793,16.492117 242.028915,16.606813 
	C245.011612,16.746788 248.005844,16.641521 250.995087,16.640862 
	C252.400101,16.640551 253.699966,16.735418 253.738968,18.649935 
	C253.775497,20.444168 252.760559,20.927723 251.203003,20.859476 
	C250.540115,20.830433 249.874634,20.853167 249.210449,20.861553 
	C244.539810,20.920513 241.827911,25.091309 244.041519,29.120089 
	C245.240250,31.301771 247.632187,29.923952 249.465698,30.232454 
	C250.964539,30.484650 252.953735,29.632143 253.044785,32.373863 
	C253.147125,35.455864 250.945755,34.651463 248.806839,34.793190 
z"/>
<path fill="#59656A" opacity="1.000000" stroke="none" 
	d="
M221.085144,36.223896 
	C220.272629,40.039959 219.690262,43.490177 218.709625,46.823223 
	C218.233734,48.440773 218.893433,50.984619 215.696259,51.086044 
	C212.480515,51.188053 212.904892,48.747871 212.505188,47.053234 
	C210.411316,38.175510 208.427841,29.271118 206.498291,20.356020 
	C206.235138,19.140133 204.809418,17.277163 207.296005,16.762564 
	C209.426575,16.321640 210.648773,17.392399 211.043106,19.657919 
	C212.350296,27.168312 213.785965,34.656349 215.864761,42.249165 
	C217.255844,34.974766 218.657974,27.702450 220.030640,20.424578 
	C220.399918,18.466656 220.388016,16.059820 223.413162,16.799219 
	C226.394730,17.527967 224.723877,19.710663 224.412491,21.244301 
	C223.422653,26.119213 222.252136,30.957438 221.085144,36.223896 
z"/>
<path fill="#5E6A6E" opacity="1.000000" stroke="none" 
	d="
M327.016724,47.640282 
	C327.012939,38.228504 326.973297,29.278849 327.052155,20.330235 
	C327.064423,18.936083 326.061981,16.744617 328.942352,16.691572 
	C331.523560,16.644037 331.823822,18.286049 331.818268,20.314220 
	C331.793213,29.429186 331.830841,38.544365 331.787262,47.659191 
	C331.780853,49.005611 332.383301,50.826534 330.004120,51.010059 
	C327.875305,51.174271 326.935608,50.179352 327.016724,47.640282 
z"/>
<path fill="#5A666A" opacity="1.000000" stroke="none" 
	d="
M116.701218,36.298195 
	C114.212776,33.808998 112.012726,31.529728 109.720505,29.347256 
	C108.524689,28.208689 107.557899,27.029299 109.003807,25.598951 
	C110.552322,24.067093 111.288460,25.979366 112.045677,26.727459 
	C120.343254,34.924973 128.598419,43.166019 136.787369,51.471863 
	C137.525681,52.220699 139.675095,52.890045 138.080185,54.513794 
	C136.771301,55.846348 135.469223,55.127708 134.249115,53.888027 
	C128.522415,48.069515 122.724113,42.321480 116.701218,36.298195 
z"/>
<path fill="#4F5B60" opacity="1.000000" stroke="none" 
	d="
M228.918335,37.987053 
	C228.918869,31.689882 228.882935,25.890436 228.947647,20.092113 
	C228.962357,18.774712 228.293335,16.919369 230.748672,16.819633 
	C233.197861,16.720146 233.296341,18.358763 233.296936,20.109762 
	C233.300049,29.388208 233.311966,38.666676 233.294388,47.945084 
	C233.291672,49.378750 233.622803,51.048775 231.213776,50.978069 
	C229.043167,50.914356 228.932449,49.503746 228.928268,47.929306 
	C228.919922,44.781281 228.921082,41.633228 228.918335,37.987053 
z"/>
<path fill="#FACA75" opacity="1.000000" stroke="none" 
	d="
M259.256622,91.489655 
	C259.168915,87.755859 259.173767,84.461670 259.137634,81.167931 
	C259.116547,79.248085 259.205383,77.415955 261.736115,77.234436 
	C263.980469,77.073456 266.162476,77.311501 266.998718,79.834450 
	C268.227997,83.543083 268.437561,87.484421 266.762360,90.949127 
	C265.113800,94.358704 262.099365,93.682449 259.256622,91.489655 
z"/>
<path fill="#FAC568" opacity="1.000000" stroke="none" 
	d="
M248.519577,89.436462 
	C248.817749,90.774261 250.494125,91.907341 249.086288,92.725815 
	C247.804626,93.470940 247.232285,91.959198 246.621277,90.973053 
	C245.950607,89.890610 245.887924,88.412415 244.503586,87.671318 
	C243.055130,89.028183 245.106186,91.604362 242.393494,92.876884 
	C241.294785,88.068657 241.748047,83.388588 242.046738,78.778961 
	C242.174576,76.806122 244.276398,77.076401 245.677094,77.353523 
	C248.611938,77.934196 249.069931,80.179810 248.729248,82.686264 
	C248.437988,84.829002 246.395355,86.848228 248.519577,89.436462 
z"/>
<path fill="#F9C25F" opacity="1.000000" stroke="none" 
	d="
M330.408630,85.589325 
	C329.813324,85.875702 329.189148,86.390205 329.055511,87.010406 
	C328.658051,88.854889 329.669983,90.926987 327.432770,93.619141 
	C326.636841,88.168907 326.823730,83.571655 327.179718,79.023796 
	C327.295593,77.543755 328.671082,78.064507 329.277405,78.948669 
	C330.108246,80.160133 330.711639,81.527550 331.393951,82.793625 
	C331.837891,82.730209 332.225250,82.791519 332.432739,82.626579 
	C333.950592,81.420021 333.545837,77.772011 335.736908,78.322464 
	C338.208282,78.943329 336.748108,82.014877 336.898956,83.988625 
	C337.117828,86.852180 336.955048,89.744919 336.348755,92.650772 
	C333.955261,90.380943 335.502930,87.474518 334.577301,84.880348 
	C333.112701,84.083641 332.649689,88.771729 330.408630,85.589325 
z"/>
<path fill="#FAC464" opacity="1.000000" stroke="none" 
	d="
M190.065201,82.293228 
	C189.927185,79.330948 190.002579,76.971413 193.543427,77.284637 
	C196.624969,77.557236 197.772095,79.728294 196.922852,82.178001 
	C195.640701,85.876442 196.741348,89.138199 198.138306,92.759026 
	C194.777130,92.733261 195.279831,89.436005 193.383545,88.504158 
	C191.773148,89.434898 193.496017,92.256897 190.760895,92.822258 
	C189.318573,89.560638 190.399094,86.080353 190.065201,82.293228 
z"/>
<path fill="#FAC568" opacity="1.000000" stroke="none" 
	d="
M275.190674,78.375610 
	C279.022430,76.176414 280.857239,78.085258 281.618530,81.240723 
	C282.275421,83.963318 282.233490,86.833267 281.536774,89.605637 
	C281.008881,91.706223 279.929626,93.201088 277.429871,93.081093 
	C275.201569,92.974121 274.318085,91.663330 273.831177,89.679832 
	C272.890900,85.849487 272.947052,82.163223 275.190674,78.375610 
z"/>
<path fill="#FAC568" opacity="1.000000" stroke="none" 
	d="
M169.914520,109.955734 
	C168.995895,106.788338 169.136368,104.045532 169.799713,101.245811 
	C170.309158,99.095657 171.289352,97.378532 173.600723,97.359581 
	C176.172028,97.338493 177.450134,99.251785 177.688553,101.549927 
	C177.942184,103.994560 177.958038,106.511864 177.668167,108.948715 
	C177.460342,110.695679 176.857880,112.604050 174.607346,112.976974 
	C172.387772,113.344765 170.676483,112.737953 169.914520,109.955734 
z"/>
<path fill="#FAC464" opacity="1.000000" stroke="none" 
	d="
M197.091125,105.970825 
	C196.931427,108.375801 197.484421,110.511574 195.879517,112.114204 
	C194.385544,113.606064 192.428375,113.190674 190.669434,112.944038 
	C188.483658,112.637566 189.137238,110.709503 189.087967,109.335884 
	C188.998566,106.842850 189.075241,104.344238 189.058044,101.848129 
	C189.042908,99.653587 188.746109,97.331825 192.039322,97.255547 
	C195.014328,97.186646 196.826065,98.408882 197.007034,101.525139 
	C197.084137,102.852989 197.066437,104.186356 197.091125,105.970825 
z"/>
<path fill="#FAC464" opacity="1.000000" stroke="none" 
	d="
M238.334534,79.206238 
	C239.525269,82.647964 239.155960,85.818481 239.034958,88.968094 
	C238.950104,91.176796 238.149017,92.876404 235.595230,93.048485 
	C232.886154,93.231033 231.473465,91.641060 231.229263,89.258392 
	C230.959641,86.627861 230.845749,83.891335 231.271317,81.300743 
	C231.903961,77.449516 234.311966,76.722343 238.334534,79.206238 
z"/>
<path fill="#F9C25F" opacity="1.000000" stroke="none" 
	d="
M215.784698,111.905525 
	C211.371353,113.365860 213.300751,107.772751 210.397293,106.965424 
	C209.255905,108.669586 211.062469,111.132980 208.049820,113.611374 
	C208.049820,108.135651 207.888763,103.523033 208.122467,98.930496 
	C208.228317,96.850388 210.251007,97.162231 211.665787,97.364471 
	C214.698517,97.797974 215.423248,100.131805 214.830429,102.542465 
	C214.058899,105.679764 213.447479,108.605537 215.784698,111.905525 
z"/>
<path fill="#FACA75" opacity="1.000000" stroke="none" 
	d="
M205.761520,98.914101 
	C204.642029,100.420380 202.166046,99.194649 201.958420,101.782913 
	C201.732544,104.598511 205.046036,103.097137 205.597473,105.073349 
	C204.699158,106.547096 201.648010,105.483612 201.806061,108.609840 
	C201.958221,111.619476 204.874008,110.416740 205.991135,111.905510 
	C200.203491,114.229904 199.175278,113.600296 199.142883,107.975403 
	C199.131470,105.991913 199.114899,104.007851 199.147507,102.024818 
	C199.230560,96.974457 200.914856,96.110321 205.761520,98.914101 
z"/>
<path fill="#FAC465" opacity="1.000000" stroke="none" 
	d="
M209.127686,89.994705 
	C207.469757,87.163635 206.668839,88.261200 206.077591,90.289986 
	C205.781601,91.305595 206.095688,93.129066 204.433075,92.731979 
	C202.332764,92.230354 203.822021,90.504738 203.996613,89.440277 
	C204.476242,86.516129 205.248138,83.640335 205.889191,80.742050 
	C206.132370,79.642647 206.023407,78.174049 207.522278,78.051422 
	C209.095901,77.922676 209.171478,79.469673 209.440308,80.507370 
	C210.267212,83.699135 210.998444,86.916939 211.698868,90.139404 
	C211.890869,91.022789 212.448471,92.367348 211.187576,92.653786 
	C209.611435,93.011841 209.635376,91.345383 209.127686,89.994705 
z"/>
<path fill="#FAC466" opacity="1.000000" stroke="none" 
	d="
M342.778046,88.297668 
	C339.648285,88.543480 341.790710,93.697258 339.191559,92.520721 
	C336.606720,91.350677 339.419708,88.194901 339.428864,85.873451 
	C339.436432,83.946121 340.330383,82.023346 340.823334,80.096428 
	C341.068481,79.138321 341.186157,77.986832 342.507172,78.033707 
	C343.456268,78.067390 343.815460,78.883904 344.007507,79.750526 
	C344.954926,84.025085 345.919312,88.295876 346.921021,92.761177 
	C343.251282,92.666489 344.761505,89.394638 342.778046,88.297668 
z"/>
<path fill="#FAC466" opacity="1.000000" stroke="none" 
	d="
M161.449371,79.738831 
	C159.803802,79.904694 158.851288,80.248802 158.771469,81.800316 
	C158.636795,84.418098 161.276566,83.379227 162.375534,84.656235 
	C161.944641,86.657280 158.286072,85.449791 158.572571,88.695267 
	C158.843781,91.767654 161.894760,90.219810 162.686218,91.974442 
	C157.035416,94.195778 156.087921,93.618095 156.061234,87.986618 
	C156.050262,85.673157 156.028580,83.358894 156.077057,81.046364 
	C156.103683,79.777237 155.794785,78.070206 157.669189,77.968742 
	C159.266861,77.882256 161.202164,76.960274 162.394165,78.957390 
	C162.446884,79.045738 162.030869,79.413864 161.449371,79.738831 
z"/>
<path fill="#FAC464" opacity="1.000000" stroke="none" 
	d="
M216.413849,112.456207 
	C215.964294,112.409988 215.978653,112.255203 215.968948,112.226227 
	C216.103760,112.114326 216.286896,112.063660 216.387054,111.943687 
	C218.050522,109.951340 222.041977,112.534866 222.638474,109.168663 
	C223.100204,106.562904 219.945969,105.652519 218.665100,103.782845 
	C217.408218,101.948189 216.942902,99.950760 218.551987,98.308517 
	C220.165558,96.661659 222.124268,96.899063 224.079254,98.804855 
	C222.644073,100.062111 217.563278,100.070824 221.939011,103.544548 
	C224.511963,105.587105 226.309845,108.176994 224.563431,111.279053 
	C222.796204,114.418053 219.587830,112.942390 216.413849,112.456207 
z"/>
<path fill="#FBCE7F" opacity="1.000000" stroke="none" 
	d="
M311.309448,84.194641 
	C314.744598,84.211891 313.930420,81.907402 314.118286,80.259354 
	C314.233795,79.246002 314.316711,78.028969 315.585602,78.117409 
	C316.790375,78.201378 316.877350,79.435425 316.883148,80.444283 
	C316.902191,83.752541 316.907745,87.060997 316.891052,90.369240 
	C316.886139,91.344063 316.993988,92.555939 315.777222,92.829666 
	C314.242218,93.174973 314.022766,91.742569 313.456604,90.770370 
	C312.912689,89.836342 313.286926,88.338585 311.415833,88.030807 
	C309.853882,86.852753 309.895386,85.578362 311.309448,84.194641 
z"/>
<path fill="#FAC871" opacity="1.000000" stroke="none" 
	d="
M178.171341,80.796913 
	C177.977692,84.355797 177.960480,87.518684 177.883942,90.680122 
	C177.860016,91.668571 177.773392,92.853584 176.391602,92.761635 
	C175.378448,92.694206 175.343964,91.694191 175.202820,90.862679 
	C174.534332,86.924011 176.711990,82.621040 173.508255,78.950615 
	C172.850159,78.196648 174.188828,77.573730 174.949142,77.509033 
	C176.543671,77.373337 178.429474,76.639297 179.607498,78.153465 
	C180.449341,79.235512 178.995270,79.765259 178.171341,80.796913 
z"/>
<path fill="#FAC464" opacity="1.000000" stroke="none" 
	d="
M361.044434,90.791496 
	C360.089691,87.303215 359.877747,84.180367 360.674500,81.061752 
	C361.569427,77.558731 363.535675,76.540825 367.798645,78.970261 
	C361.948151,79.688553 363.179047,83.446732 362.829498,86.669456 
	C362.444733,90.216667 364.969025,90.827164 367.391174,92.049393 
	C365.038971,93.162979 362.905151,93.902382 361.044434,90.791496 
z"/>
<path fill="#F9C25F" opacity="1.000000" stroke="none" 
	d="
M321.074829,89.730408 
	C322.005493,91.859116 324.497467,90.065346 325.303345,92.006966 
	C319.719421,94.094719 318.887451,93.602234 318.845642,88.208229 
	C318.831451,86.375969 319.017395,84.523499 318.809570,82.715004 
	C318.250122,77.846199 320.480835,76.970360 324.688354,78.370598 
	C324.360413,80.633743 320.507416,79.047516 320.965881,82.169044 
	C321.328369,84.637154 323.923706,83.188789 324.808960,85.114937 
	C323.196838,86.108253 319.982544,86.059006 321.074829,89.730408 
z"/>
<path fill="#F9C25F" opacity="1.000000" stroke="none" 
	d="
M181.842957,83.111145 
	C181.170654,77.694450 183.628586,77.090721 187.727600,78.336685 
	C187.280991,80.598328 183.493454,79.076973 183.972549,82.192596 
	C184.344681,84.612717 186.885406,83.251411 187.805191,84.926964 
	C186.779739,86.441696 183.477661,85.472855 183.863541,88.836121 
	C184.244980,92.160484 187.228745,90.167244 188.442810,91.949806 
	C186.988052,93.880836 184.834473,93.142570 183.196701,92.789551 
	C180.904099,92.295364 182.045792,90.054741 181.884323,88.565651 
	C181.706314,86.924187 181.843277,85.248558 181.842957,83.111145 
z"/>
<path fill="#F9C25F" opacity="1.000000" stroke="none" 
	d="
M221.728058,84.277863 
	C224.377701,81.249962 223.875778,85.782845 225.768539,85.218346 
	C226.317139,83.004822 226.919769,80.573296 227.522400,78.141769 
	C227.987381,78.198990 228.452362,78.256203 228.917343,78.313423 
	C229.428482,83.014946 227.810745,87.572144 226.751968,92.137299 
	C226.523605,93.121986 225.326431,93.078751 224.884216,92.183601 
	C224.308609,91.018433 224.073990,89.684807 223.385284,88.232071 
	C222.516922,88.234222 222.039398,88.108192 221.454025,87.310181 
	C221.046539,86.142868 221.109467,85.359665 221.728058,84.277863 
z"/>
<path fill="#FAC871" opacity="1.000000" stroke="none" 
	d="
M162.737030,103.977768 
	C166.216476,103.813698 164.557877,101.253868 165.113113,99.881683 
	C165.488663,98.953583 165.621613,97.858398 166.944550,98.130829 
	C167.979218,98.343887 167.960281,99.311371 167.824158,100.110977 
	C167.192383,103.822281 166.707947,107.575958 165.773361,111.212326 
	C165.152557,113.627792 163.898682,113.796127 162.892792,111.220528 
	C162.606155,110.486610 162.122742,109.829544 161.365158,109.069565 
	C160.413467,108.457230 160.245087,107.786926 160.484131,106.662941 
	C160.933578,105.373856 161.580109,104.670273 162.737030,103.977768 
z"/>
<path fill="#FBCE7F" opacity="1.000000" stroke="none" 
	d="
M254.028641,89.419586 
	C254.573578,91.573837 257.091339,90.227951 257.512878,92.084511 
	C252.030441,94.100235 251.150574,93.564034 251.111023,88.168427 
	C251.092743,85.673988 251.075180,83.178299 251.136154,80.685104 
	C251.162933,79.590187 250.953812,78.057472 252.669952,78.160057 
	C253.931763,78.235481 253.908234,79.523918 253.921600,80.510948 
	C253.959885,83.337715 253.957642,86.165031 254.028641,89.419586 
z"/>
<path fill="#F9C25F" opacity="1.000000" stroke="none" 
	d="
M296.641357,91.059586 
	C295.626495,87.740128 295.877594,84.721588 296.097382,81.763435 
	C296.397888,77.718903 298.339447,76.890236 303.245758,79.047234 
	C298.339386,79.602074 298.119232,82.625694 298.017426,86.138969 
	C297.916016,89.637909 299.852814,90.949890 304.195923,91.824867 
	C300.546295,93.237877 298.570404,93.781631 296.641357,91.059586 
z"/>
<path fill="#FAC466" opacity="1.000000" stroke="none" 
	d="
M183.072784,105.660233 
	C181.039734,107.292404 182.241486,109.331718 181.896820,111.016830 
	C181.721191,111.875458 181.559708,112.815430 180.549042,112.766449 
	C179.535767,112.717339 179.387863,111.720123 179.381042,110.884224 
	C179.352524,107.384659 179.339966,103.884544 179.374725,100.385162 
	C179.384232,99.428574 179.314697,98.253265 180.695389,98.129005 
	C181.747665,98.034302 182.103973,98.958725 182.287842,99.735214 
	C182.723450,101.574875 184.388702,103.249916 183.072784,105.660233 
z"/>
<path fill="#F9C25F" opacity="1.000000" stroke="none" 
	d="
M286.125916,81.940727 
	C286.190247,84.760826 289.116608,83.099754 289.925873,85.405693 
	C283.640717,84.908371 287.291351,90.289101 284.454895,94.000359 
	C283.689178,88.144363 283.460876,83.375816 284.435364,78.833321 
	C284.835602,76.967560 287.758789,77.841438 289.651001,78.224960 
	C289.611816,80.742134 285.900238,78.977867 286.125916,81.940727 
z"/>
<path fill="#FAC466" opacity="1.000000" stroke="none" 
	d="
M167.285904,82.340668 
	C171.706589,83.330177 168.455978,78.903030 171.867523,78.083534 
	C171.867523,82.754753 172.045029,87.262093 171.774612,91.742401 
	C171.675262,93.387993 170.096497,93.253899 169.385559,92.002167 
	C168.673203,90.747932 168.443405,89.219627 167.989288,87.423965 
	C169.536591,84.951767 165.985840,85.137596 166.485107,83.187500 
	C166.675980,82.615227 166.809189,82.405235 167.285904,82.340668 
z"/>
<path fill="#FAC465" opacity="1.000000" stroke="none" 
	d="
M160.776855,105.824554 
	C160.998688,106.751984 160.991837,107.501976 160.992859,108.626930 
	C160.808487,110.370842 161.525604,112.473511 159.604263,112.706596 
	C157.337021,112.981659 158.116455,110.617867 157.769424,109.398010 
	C157.099564,107.043381 156.589478,104.626137 156.249420,102.201721 
	C156.065491,100.890343 155.175339,98.618576 156.842163,98.395935 
	C159.064545,98.099083 158.482269,100.639015 158.857132,102.084114 
	C159.217789,103.474495 158.527786,105.041824 159.826187,106.161819 
	C160.242737,105.883095 160.395447,105.765114 160.776855,105.824554 
z"/>
<path fill="#F9BE56" opacity="1.000000" stroke="none" 
	d="
M182.979919,106.006027 
	C185.203583,106.548813 184.810547,104.853874 184.979095,103.647774 
	C185.229950,101.852600 184.469467,99.860939 186.290207,97.367935 
	C187.546829,102.653137 186.836670,107.144684 186.920822,111.576744 
	C186.927719,111.939774 186.542511,112.484177 186.199615,112.643776 
	C185.481583,112.977974 184.885574,112.469704 184.642136,111.872620 
	C183.968842,110.221184 183.134186,108.592628 183.160156,106.347206 
	C183.021790,105.978043 182.984467,105.987244 182.979919,106.006027 
z"/>
<path fill="#F9C25F" opacity="1.000000" stroke="none" 
	d="
M349.986725,83.371368 
	C350.477966,81.075020 348.943848,79.980980 348.204437,78.529831 
	C350.009949,77.455872 351.744781,77.745110 353.846954,78.302681 
	C350.293182,82.667366 353.378632,88.086243 350.914856,94.018005 
	C349.512360,89.843010 350.187286,86.772629 349.986725,83.371368 
z"/>
<path fill="#FAC466" opacity="1.000000" stroke="none" 
	d="
M166.326279,87.031105 
	C166.205841,89.130737 166.771103,90.940483 165.600616,92.608467 
	C164.371719,90.815147 163.482803,80.212120 164.460007,78.844887 
	C164.698425,78.511337 165.252563,78.105782 165.567459,78.173126 
	C167.546494,78.596451 166.893127,80.521339 167.559204,82.117790 
	C167.629410,82.486092 167.318024,82.753197 167.156952,82.880226 
	C165.900101,84.103081 167.190613,85.528862 166.326279,87.031105 
z"/>
<path fill="#F9C25F" opacity="1.000000" stroke="none" 
	d="
M311.864136,83.711060 
	C310.642609,85.007423 311.003357,86.231461 311.006287,87.719345 
	C310.937012,89.637772 311.701141,91.352486 309.113708,93.806343 
	C309.113708,88.340576 309.106720,83.929657 309.120697,79.518814 
	C309.122986,78.795273 309.523438,78.109741 310.236633,78.236504 
	C310.765961,78.330582 311.491180,78.934746 311.605957,79.432373 
	C311.894775,80.684425 311.887299,82.004814 311.864136,83.711060 
z"/>
<path fill="#FAC465" opacity="1.000000" stroke="none" 
	d="
M221.784637,86.793854 
	C222.209976,87.282135 222.414154,87.549034 222.848145,87.928207 
	C222.848450,88.835129 222.764282,89.722771 221.485138,90.098106 
	C220.739700,90.448242 220.265961,90.536942 219.481003,90.159622 
	C218.689621,86.959007 218.163773,84.017593 217.655045,81.073219 
	C217.474640,80.029167 216.478439,78.504128 218.185776,78.189888 
	C220.204742,77.818306 219.832703,79.741447 220.014236,80.960564 
	C220.111954,81.616959 220.114685,82.287514 220.183380,83.358856 
	C220.765381,84.649986 220.965439,85.707451 221.784637,86.793854 
z"/>
<path fill="#FAC466" opacity="1.000000" stroke="none" 
	d="
M357.820984,92.261703 
	C354.297058,88.043915 356.860107,83.143494 356.909363,78.363037 
	C358.696808,82.753181 358.100220,87.351364 357.820984,92.261703 
z"/>
<path fill="#F9BE56" opacity="1.000000" stroke="none" 
	d="
M307.012054,89.627457 
	C306.835144,90.960220 307.403076,92.206429 306.137054,92.567139 
	C305.254700,92.818535 305.070190,91.891953 305.082367,91.278275 
	C305.168243,86.949150 304.450714,82.562416 306.047485,78.281044 
	C307.485016,81.825638 306.792908,85.546089 307.012054,89.627457 
z"/>
<path fill="#FAC871" opacity="1.000000" stroke="none" 
	d="
M166.446060,87.230743 
	C166.040741,86.079758 165.742432,84.764725 166.709320,83.261154 
	C166.925781,84.898827 168.554199,83.949776 169.316193,84.434860 
	C170.243866,85.025398 170.018158,86.077087 169.917328,87.012520 
	C169.376755,86.910042 168.836166,86.807571 168.136032,86.870789 
	C167.560226,87.050438 167.143982,87.064392 166.446060,87.230743 
z"/>
<path fill="#FAC466" opacity="1.000000" stroke="none" 
	d="
M161.339081,105.953758 
	C161.005539,106.001984 160.547607,106.000610 160.318817,106.000839 
	C160.394821,102.286079 160.730408,101.960876 163.031769,103.517715 
	C162.929733,104.750542 162.776718,105.651321 161.339081,105.953758 
z"/>
<path fill="#FBD797" opacity="1.000000" stroke="none" 
	d="
M222.007812,86.631256 
	C220.376785,86.940231 219.969193,85.923584 220.140854,84.138512 
	C220.593079,83.858742 220.979675,83.951447 221.661652,83.995316 
	C221.974640,84.713409 221.992233,85.480354 222.007812,86.631256 
z"/>
<path fill="#FBD797" opacity="1.000000" stroke="none" 
	d="
M219.206146,90.199280 
	C219.647491,89.937263 220.086258,89.972931 220.849762,90.080078 
	C220.868576,90.627197 220.659012,91.359993 220.234467,91.519081 
	C219.574020,91.766556 219.285736,91.119316 219.206146,90.199280 
z"/>
<path fill="#F4F5F5" opacity="1.000000" stroke="none" 
	d="
M64.747719,73.747711 
	C70.864883,67.616745 76.801300,61.802433 82.560257,55.817364 
	C84.433548,53.870522 85.629440,53.523006 87.685883,55.673889 
	C93.769722,62.037148 100.019104,68.246681 106.339058,74.376831 
	C108.180183,76.162659 108.317200,77.275467 106.413635,79.149124 
	C96.704536,88.705688 87.094383,98.363716 77.531120,108.066589 
	C75.972542,109.647911 75.003761,110.107277 73.218025,108.257858 
	C66.871529,101.685020 60.404800,95.224785 53.855404,88.853699 
	C52.122803,87.168274 52.119217,86.170135 53.887016,84.530624 
	C57.538956,81.143692 60.973835,77.522705 64.747719,73.747711 
z"/>
<path fill="#FFFCF8" opacity="1.000000" stroke="none" 
	d="
M63.628098,33.295784 
	C66.030861,36.649220 66.159615,39.756115 63.669853,42.651833 
	C61.783356,44.845928 59.262722,45.547562 56.468914,44.672813 
	C53.696873,43.804878 52.010208,41.861519 51.599510,38.971085 
	C51.190006,36.089020 52.242916,33.735767 54.686321,32.168842 
	C57.752468,30.202564 60.664398,30.803875 63.628098,33.295784 
z"/>
<path fill="#FFFCF8" opacity="1.000000" stroke="none" 
	d="
M56.778725,27.177048 
	C53.520725,24.468576 53.058701,21.358637 54.696663,18.076708 
	C55.965126,15.535130 58.337864,14.135213 61.203800,14.458816 
	C64.433670,14.823512 66.549355,16.792213 67.481125,19.977674 
	C68.281898,22.715357 67.139717,24.935242 65.303558,26.640980 
	C62.890881,28.882298 60.006947,29.044930 56.778725,27.177048 
z"/>
<path fill="#FFFCF8" opacity="1.000000" stroke="none" 
	d="
M82.710838,23.569487 
	C79.934418,26.578558 76.938637,26.875687 73.854782,25.175529 
	C71.348618,23.793858 69.926369,21.419552 70.240303,18.535055 
	C70.547043,15.716639 72.203438,13.659492 74.968445,12.611163 
	C77.862015,11.514092 80.227066,12.508646 82.208626,14.534813 
	C84.794655,17.179045 84.659470,20.174059 82.710838,23.569487 
z"/>
<path fill="#FFFCF8" opacity="1.000000" stroke="none" 
	d="
M18.090784,62.992325 
	C15.520320,59.430340 15.392857,56.175137 18.366816,53.348148 
	C20.523264,51.298264 23.197123,50.548157 26.075970,52.065102 
	C29.208435,53.715694 30.588932,56.307178 29.985542,59.822189 
	C29.086922,65.057068 23.900425,66.590103 18.090784,62.992325 
z"/>
<path fill="#FFFCF8" opacity="1.000000" stroke="none" 
	d="
M44.136223,50.749878 
	C47.379211,54.074226 47.760944,57.357861 44.963684,60.690922 
	C42.781685,63.290878 39.942989,63.734280 36.917084,62.382591 
	C33.588322,60.895603 32.442581,58.102261 33.032639,54.658382 
	C33.848988,49.893761 38.515415,48.151264 44.136223,50.749878 
z"/>
<path fill="#FFFEFC" opacity="1.000000" stroke="none" 
	d="
M26.371151,70.718948 
	C29.004313,74.766785 28.248720,78.068596 24.847507,80.607903 
	C21.927465,82.787987 18.785967,82.416557 16.273880,79.855484 
	C13.503545,77.031113 12.950440,73.781525 15.731344,70.530426 
	C18.593779,67.184021 21.904526,67.174232 26.371151,70.718948 
z"/>
<path fill="#F6F7F7" opacity="1.000000" stroke="none" 
	d="
M188.765961,39.123241 
	C187.985184,34.031662 188.368225,29.387598 189.307327,24.814440 
	C189.740372,22.705608 190.662537,20.343863 193.371002,20.521246 
	C195.668991,20.671749 196.524948,22.731695 196.987167,24.763100 
	C198.297165,30.520407 198.327118,36.297752 197.167938,42.086304 
	C196.694504,44.450401 196.115982,46.919888 193.120010,46.914673 
	C190.094528,46.909405 189.662292,44.272984 189.074722,42.026211 
	C188.866806,41.231159 188.888016,40.376186 188.765961,39.123241 
z"/>
<path fill="#EBEDED" opacity="1.000000" stroke="none" 
	d="
M291.174225,30.461376 
	C291.597961,28.796772 291.948975,27.530670 292.366486,26.024639 
	C293.570862,28.184978 293.846069,30.315729 294.134491,32.437038 
	C294.314026,33.757381 295.463837,35.554111 292.672394,35.504005 
	C290.209259,35.459785 290.747284,33.817268 290.924316,32.345306 
	C290.983856,31.850222 291.042450,31.355022 291.174225,30.461376 
z"/>
<path fill="#DBDDDE" opacity="1.000000" stroke="none" 
	d="
M343.024536,33.830982 
	C343.551208,31.138523 344.050934,28.844494 344.550629,26.550463 
	C344.840546,26.547504 345.130493,26.544546 345.420410,26.541590 
	C345.921814,28.666574 346.459076,30.784014 346.908020,32.920025 
	C347.105042,33.857529 347.362366,35.078224 346.141510,35.417057 
	C344.965179,35.743530 343.463989,36.135563 343.024536,33.830982 
z"/>
<path fill="#FFFCF8" opacity="1.000000" stroke="none" 
	d="
M265.061035,85.022491 
	C265.057465,86.128517 265.121155,86.792145 265.035278,87.435814 
	C264.856049,88.778778 265.425537,90.841003 263.201721,90.719536 
	C261.317657,90.616608 262.023163,88.742241 261.896545,87.561775 
	C261.792450,86.590942 261.732971,85.574463 261.905670,84.623993 
	C262.193756,83.038742 260.869080,80.248589 263.386536,80.206062 
	C265.893707,80.163704 264.724518,82.972839 265.061035,85.022491 
z"/>
<path fill="#FEF3DF" opacity="1.000000" stroke="none" 
	d="
M193.161301,80.035507 
	C195.483337,80.637665 195.232162,82.012321 194.478714,83.407608 
	C194.124527,84.063469 193.205414,84.097176 192.795929,83.660385 
	C191.781204,82.577980 191.926773,81.327751 193.161301,80.035507 
z"/>
<path fill="#FEF9EF" opacity="1.000000" stroke="none" 
	d="
M279.838379,84.231705 
	C279.725586,86.890030 280.267273,90.601974 277.804077,90.505981 
	C274.474792,90.376236 276.192871,86.578667 275.936096,84.381187 
	C275.761322,82.885521 275.298004,80.449432 277.403717,80.159172 
	C279.617371,79.854027 279.389343,82.304939 279.838379,84.231705 
z"/>
<path fill="#FEF9EF" opacity="1.000000" stroke="none" 
	d="
M175.835480,106.722504 
	C175.392487,108.621323 175.587540,110.997940 173.419601,110.717224 
	C171.314774,110.444679 172.123260,108.103638 171.861755,106.596176 
	C171.834183,106.437195 171.820068,106.262558 171.855530,106.107986 
	C172.325317,104.060326 170.736984,100.366058 173.532852,100.327255 
	C176.611664,100.284531 175.555450,104.040474 175.835480,106.722504 
z"/>
<path fill="#FEF9EF" opacity="1.000000" stroke="none" 
	d="
M191.154190,106.850739 
	C191.833633,104.127541 189.586685,99.671425 192.903717,99.855591 
	C196.768600,100.070168 194.504135,104.672356 194.939468,107.322739 
	C195.199005,108.902847 194.975189,111.018585 192.642334,110.851898 
	C190.412537,110.692574 191.428391,108.591888 191.154190,106.850739 
z"/>
<path fill="#FFFCF8" opacity="1.000000" stroke="none" 
	d="
M235.106476,80.121841 
	C237.474518,81.264160 237.167450,83.252388 237.004654,84.957245 
	C236.810303,86.992508 238.187943,90.601784 234.992996,90.468651 
	C232.527725,90.365929 233.170074,86.802414 233.103088,84.602921 
	C233.052628,82.945122 233.281631,81.314545 235.106476,80.121841 
z"/>
<path fill="#FEF3DF" opacity="1.000000" stroke="none" 
	d="
M210.063797,100.549210 
	C212.310822,98.327065 212.539932,100.242546 212.811325,101.663567 
	C213.001709,102.660576 212.675491,103.857536 211.464935,103.854195 
	C209.345779,103.848366 210.203171,102.054436 210.063797,100.549210 
z"/>
<path fill="#505D62" opacity="1.000000" stroke="none" 
	d="
M57.512245,89.205536 
	C55.718529,87.600601 55.004551,86.549568 56.973885,84.634758 
	C65.792831,76.059967 74.464577,67.331543 83.075287,58.546669 
	C84.855927,56.730015 85.873413,57.101059 87.445358,58.723904 
	C92.649780,64.096817 97.932777,69.397804 103.318954,74.588028 
	C105.027519,76.234428 105.104141,77.256462 103.367966,78.960793 
	C94.707962,87.461929 86.112968,96.031456 77.625793,104.704811 
	C75.776016,106.595169 74.649712,106.466225 72.912262,104.663200 
	C67.953049,99.516861 62.840481,94.518295 57.512245,89.205536 
z"/>
</svg>